<?xml version="1.0" encoding="UTF-8" standalone="no"?>
<!DOCTYPE svg PUBLIC "-//W3C//DTD SVG 1.1//EN"
 "http://www.w3.org/Graphics/SVG/1.1/DTD/svg11.dtd">
<!-- Generated by graphviz version 2.36.0 (20140111.2315)
 -->
<!-- Title: G Pages: 1 -->
<svg width="531pt" height="380pt"
 viewBox="0.00 0.00 531.00 380.00" xmlns="http://www.w3.org/2000/svg" xmlns:xlink="http://www.w3.org/1999/xlink">
<g id="graph0" class="graph" transform="scale(1 1) rotate(0) translate(4 376)">
<title>G</title>
<polygon fill="white" stroke="none" points="-4,4 -4,-376 527,-376 527,4 -4,4"/>
<g id="clust1" class="cluster"><title>cluster_0</title>
<polygon fill="lightgrey" stroke="lightgrey" points="82,-214 82,-296 440,-296 440,-214 82,-214"/>
<text text-anchor="middle" x="384" y="-232" font-family="Times,serif" font-size="10.00">Iteration #1</text>
<text text-anchor="middle" x="384" y="-221" font-family="Times,serif" font-size="10.00">Threshold determined, t</text>
</g>
<g id="clust2" class="cluster"><title>cluster_1</title>
<polygon fill="none" stroke="gray" points="8,-111 8,-194 515,-194 515,-111 8,-111"/>
<text text-anchor="middle" x="483.5" y="-118" font-family="Times,serif" font-size="10.00">Iteration #2</text>
</g>
<g id="clust3" class="cluster"><title>cluster_2</title>
<polygon fill="none" stroke="gray" points="49,-8 49,-91 484,-91 484,-8 49,-8"/>
<text text-anchor="middle" x="452.5" y="-15" font-family="Times,serif" font-size="10.00">Iteration #3</text>
</g>
<!-- seed -->
<g id="node1" class="node"><title>seed</title>
<polygon fill="none" stroke="black" points="297.25,-372 224.75,-372 224.75,-336 297.25,-336 297.25,-372"/>
<text text-anchor="middle" x="261" y="-350.9" font-family="Times,serif" font-size="12.00">Seed Query</text>
</g>
<!-- rel1 -->
<g id="node2" class="node"><title>rel1</title>
<polygon fill="white" stroke="white" points="144,-288 90,-288 90,-252 144,-252 144,-288"/>
<text text-anchor="middle" x="117" y="-273" font-family="Times,serif" font-size="10.00">Similar</text>
<text text-anchor="middle" x="117" y="-262" font-family="Times,serif" font-size="10.00">Query 1</text>
</g>
<!-- seed&#45;&gt;rel1 -->
<g id="edge1" class="edge"><title>seed&#45;&gt;rel1</title>
<path fill="none" stroke="red" d="M230.813,-335.81C205.247,-321.252 168.917,-300.564 144.229,-286.506"/>
<text text-anchor="middle" x="201" y="-309.5" font-family="Times,serif" font-size="10.00" fill="red">k&lt;t</text>
</g>
<!-- rel2 -->
<g id="node3" class="node"><title>rel2</title>
<polygon fill="white" stroke="white" points="216,-288 162,-288 162,-252 216,-252 216,-288"/>
<text text-anchor="middle" x="189" y="-273" font-family="Times,serif" font-size="10.00">Similar</text>
<text text-anchor="middle" x="189" y="-262" font-family="Times,serif" font-size="10.00">Query 2</text>
</g>
<!-- seed&#45;&gt;rel2 -->
<g id="edge2" class="edge"><title>seed&#45;&gt;rel2</title>
<path fill="none" stroke="green" d="M245.731,-335.61C233.429,-321.6 216.23,-302.011 204,-288.084"/>
<text text-anchor="middle" x="239" y="-309.5" font-family="Times,serif" font-size="10.00" fill="green">k&gt;=t</text>
</g>
<!-- rel3 -->
<g id="node4" class="node"><title>rel3</title>
<polygon fill="white" stroke="white" points="288,-288 234,-288 234,-252 288,-252 288,-288"/>
<text text-anchor="middle" x="261" y="-273" font-family="Times,serif" font-size="10.00">Similar</text>
<text text-anchor="middle" x="261" y="-262" font-family="Times,serif" font-size="10.00">Query 3</text>
</g>
<!-- seed&#45;&gt;rel3 -->
<g id="edge3" class="edge"><title>seed&#45;&gt;rel3</title>
<path fill="none" stroke="green" d="M261,-335.61C261,-321.6 261,-302.011 261,-288.084"/>
<text text-anchor="middle" x="271" y="-309.5" font-family="Times,serif" font-size="10.00" fill="green">k&gt;=t</text>
</g>
<!-- rel4 -->
<g id="node5" class="node"><title>rel4</title>
<polygon fill="lightgray" stroke="none" points="360,-288 306,-288 306,-252 360,-252 360,-288"/>
<text text-anchor="middle" x="333" y="-267.5" font-family="Times,serif" font-size="10.00">...</text>
</g>
<!-- seed&#45;&gt;rel4 -->
<g id="edge4" class="edge"><title>seed&#45;&gt;rel4</title>
<path fill="none" stroke="gray" stroke-dasharray="1,5" d="M276.269,-335.61C288.571,-321.6 305.77,-302.011 318,-288.084"/>
</g>
<!-- reln -->
<g id="node6" class="node"><title>reln</title>
<polygon fill="white" stroke="white" points="432,-288 378,-288 378,-252 432,-252 432,-288"/>
<text text-anchor="middle" x="405" y="-273" font-family="Times,serif" font-size="10.00">Similar</text>
<text text-anchor="middle" x="405" y="-262" font-family="Times,serif" font-size="10.00">Query n</text>
</g>
<!-- seed&#45;&gt;reln -->
<g id="edge5" class="edge"><title>seed&#45;&gt;reln</title>
<path fill="none" stroke="red" d="M291.187,-335.81C316.753,-321.252 353.083,-300.564 377.771,-286.506"/>
<text text-anchor="middle" x="355" y="-309.5" font-family="Times,serif" font-size="10.00" fill="red">k&lt;t</text>
</g>
<!-- rel2n1 -->
<g id="node7" class="node"><title>rel2n1</title>
<text text-anchor="middle" x="43" y="-158.9" font-family="Times,serif" font-size="12.00">...</text>
</g>
<!-- rel1&#45;&gt;rel2n1 -->
<g id="edge6" class="edge"><title>rel1&#45;&gt;rel2n1</title>
<path fill="none" stroke="gray" stroke-dasharray="1,5" d="M105.111,-251.969C91.3831,-232.306 68.9242,-200.135 55.1057,-180.341"/>
</g>
<!-- rel2n2 -->
<g id="node8" class="node"><title>rel2n2</title>
<text text-anchor="middle" x="115" y="-158.9" font-family="Times,serif" font-size="12.00">...</text>
</g>
<!-- rel2&#45;&gt;rel2n2 -->
<g id="edge7" class="edge"><title>rel2&#45;&gt;rel2n2</title>
<path fill="none" stroke="gray" stroke-dasharray="1,5" d="M177.111,-251.969C163.383,-232.306 140.924,-200.135 127.106,-180.341"/>
</g>
<!-- rel21 -->
<g id="node9" class="node"><title>rel21</title>
<polygon fill="lightgreen" stroke="lightgreen" points="215.25,-185.5 160.75,-185.5 160.75,-138.5 215.25,-138.5 215.25,-185.5"/>
<text text-anchor="middle" x="188" y="-171.9" font-family="Times,serif" font-size="12.00">Similar</text>
<text text-anchor="middle" x="188" y="-158.9" font-family="Times,serif" font-size="12.00">Query 1</text>
<text text-anchor="middle" x="188" y="-145.9" font-family="Times,serif" font-size="12.00">k&gt;=t</text>
</g>
<!-- rel3&#45;&gt;rel21 -->
<g id="edge8" class="edge"><title>rel3&#45;&gt;rel21</title>
<path fill="none" stroke="gray" d="M249.271,-251.969C236.858,-233.944 217.207,-205.41 203.518,-185.533"/>
</g>
<!-- rel22 -->
<g id="node10" class="node"><title>rel22</title>
<polygon fill="red" stroke="red" points="288.25,-185.5 233.75,-185.5 233.75,-138.5 288.25,-138.5 288.25,-185.5"/>
<text text-anchor="middle" x="261" y="-171.9" font-family="Times,serif" font-size="12.00">Similar</text>
<text text-anchor="middle" x="261" y="-158.9" font-family="Times,serif" font-size="12.00">Query 2</text>
<text text-anchor="middle" x="261" y="-145.9" font-family="Times,serif" font-size="12.00">k&lt;t</text>
</g>
<!-- rel3&#45;&gt;rel22 -->
<g id="edge9" class="edge"><title>rel3&#45;&gt;rel22</title>
<path fill="none" stroke="gray" d="M261,-251.969C261,-233.944 261,-205.41 261,-185.533"/>
</g>
<!-- rel23 -->
<g id="node11" class="node"><title>rel23</title>
<text text-anchor="middle" x="334" y="-158.9" font-family="Times,serif" font-size="12.00">...</text>
</g>
<!-- rel3&#45;&gt;rel23 -->
<g id="edge10" class="edge"><title>rel3&#45;&gt;rel23</title>
<path fill="none" stroke="gray" stroke-dasharray="1,5" d="M272.729,-251.969C286.271,-232.306 308.426,-200.135 322.058,-180.341"/>
</g>
<!-- rel2n -->
<g id="node12" class="node"><title>rel2n</title>
<polygon fill="red" stroke="red" points="434.25,-185.5 379.75,-185.5 379.75,-138.5 434.25,-138.5 434.25,-185.5"/>
<text text-anchor="middle" x="407" y="-171.9" font-family="Times,serif" font-size="12.00">Similar</text>
<text text-anchor="middle" x="407" y="-158.9" font-family="Times,serif" font-size="12.00">Query n</text>
<text text-anchor="middle" x="407" y="-145.9" font-family="Times,serif" font-size="12.00">k&lt;t</text>
</g>
<!-- rel3&#45;&gt;rel2n -->
<g id="edge11" class="edge"><title>rel3&#45;&gt;rel2n</title>
<path fill="none" stroke="gray" d="M284.457,-251.969C310.413,-233.125 352.19,-202.794 379.622,-182.878"/>
</g>
<!-- rel2n3 -->
<g id="node13" class="node"><title>rel2n3</title>
<text text-anchor="middle" x="480" y="-158.9" font-family="Times,serif" font-size="12.00">...</text>
</g>
<!-- reln&#45;&gt;rel2n3 -->
<g id="edge12" class="edge"><title>reln&#45;&gt;rel2n3</title>
<path fill="none" stroke="gray" stroke-dasharray="1,5" d="M417.05,-251.969C430.963,-232.306 453.726,-200.135 467.731,-180.341"/>
</g>
<!-- rel3n1 -->
<g id="node18" class="node"><title>rel3n1</title>
<text text-anchor="middle" x="84" y="-55.9" font-family="Times,serif" font-size="12.00">...</text>
</g>
<!-- rel21&#45;&gt;rel3n1 -->
<g id="edge13" class="edge"><title>rel21&#45;&gt;rel3n1</title>
<path fill="none" stroke="gray" stroke-dasharray="1,5" d="M164.66,-138.334C145.616,-119.839 119.113,-94.1001 101.763,-77.2504"/>
</g>
<!-- rel31 -->
<g id="node14" class="node"><title>rel31</title>
<polygon fill="red" stroke="red" points="184.25,-82.5 129.75,-82.5 129.75,-35.5 184.25,-35.5 184.25,-82.5"/>
<text text-anchor="middle" x="157" y="-68.9" font-family="Times,serif" font-size="12.00">Similar</text>
<text text-anchor="middle" x="157" y="-55.9" font-family="Times,serif" font-size="12.00">Query 1</text>
<text text-anchor="middle" x="157" y="-42.9" font-family="Times,serif" font-size="12.00">k&lt;t</text>
</g>
<!-- rel22&#45;&gt;rel31 -->
<g id="edge14" class="edge"><title>rel22&#45;&gt;rel31</title>
<path fill="none" stroke="gray" d="M237.66,-138.334C220.532,-121.7 197.371,-99.2068 180.262,-82.5907"/>
</g>
<!-- rel32 -->
<g id="node15" class="node"><title>rel32</title>
<polygon fill="lightgreen" stroke="lightgreen" points="257.25,-82.5 202.75,-82.5 202.75,-35.5 257.25,-35.5 257.25,-82.5"/>
<text text-anchor="middle" x="230" y="-68.9" font-family="Times,serif" font-size="12.00">Similar</text>
<text text-anchor="middle" x="230" y="-55.9" font-family="Times,serif" font-size="12.00">Query 2</text>
<text text-anchor="middle" x="230" y="-42.9" font-family="Times,serif" font-size="12.00">k&gt;=t</text>
</g>
<!-- rel22&#45;&gt;rel32 -->
<g id="edge15" class="edge"><title>rel22&#45;&gt;rel32</title>
<path fill="none" stroke="gray" d="M254.043,-138.334C248.938,-121.7 242.034,-99.2068 236.934,-82.5907"/>
</g>
<!-- rel33 -->
<g id="node16" class="node"><title>rel33</title>
<text text-anchor="middle" x="303" y="-55.9" font-family="Times,serif" font-size="12.00">...</text>
</g>
<!-- rel22&#45;&gt;rel33 -->
<g id="edge16" class="edge"><title>rel22&#45;&gt;rel33</title>
<path fill="none" stroke="gray" stroke-dasharray="1,5" d="M270.426,-138.334C278.117,-119.839 288.82,-94.1001 295.827,-77.2504"/>
</g>
<!-- rel3n -->
<g id="node17" class="node"><title>rel3n</title>
<polygon fill="lightgreen" stroke="lightgreen" points="403.25,-82.5 348.75,-82.5 348.75,-35.5 403.25,-35.5 403.25,-82.5"/>
<text text-anchor="middle" x="376" y="-68.9" font-family="Times,serif" font-size="12.00">Similar</text>
<text text-anchor="middle" x="376" y="-55.9" font-family="Times,serif" font-size="12.00">Query n</text>
<text text-anchor="middle" x="376" y="-42.9" font-family="Times,serif" font-size="12.00">k&gt;=t</text>
</g>
<!-- rel22&#45;&gt;rel3n -->
<g id="edge17" class="edge"><title>rel22&#45;&gt;rel3n</title>
<path fill="none" stroke="gray" d="M286.808,-138.334C305.748,-121.7 331.359,-99.2068 350.278,-82.5907"/>
</g>
<!-- rel3n2 -->
<g id="node19" class="node"><title>rel3n2</title>
<text text-anchor="middle" x="449" y="-55.9" font-family="Times,serif" font-size="12.00">...</text>
</g>
<!-- rel2n&#45;&gt;rel3n2 -->
<g id="edge18" class="edge"><title>rel2n&#45;&gt;rel3n2</title>
<path fill="none" stroke="gray" stroke-dasharray="1,5" d="M416.426,-138.334C424.117,-119.839 434.82,-94.1001 441.827,-77.2504"/>
</g>
</g>
</svg>
