<?xml version="1.0" encoding="UTF-8" standalone="no"?>
<!DOCTYPE svg PUBLIC "-//W3C//DTD SVG 1.1//EN"
 "http://www.w3.org/Graphics/SVG/1.1/DTD/svg11.dtd">
<!-- Generated by graphviz version 2.40.1 (20161225.0304)
 -->
<!-- Title: G Pages: 1 -->
<svg width="383pt" height="364pt"
 viewBox="0.00 0.00 383.00 364.00" xmlns="http://www.w3.org/2000/svg" xmlns:xlink="http://www.w3.org/1999/xlink">
<g id="graph0" class="graph" transform="scale(1 1) rotate(0) translate(4 360)">
<title>G</title>
<polygon fill="#ffffff" stroke="transparent" points="-4,4 -4,-360 379,-360 379,4 -4,4"/>
<g id="clust1" class="cluster">
<title>cluster_0</title>
<polygon fill="#d3d3d3" stroke="#d3d3d3" points="9,-202 9,-282 367,-282 367,-202 9,-202"/>
<text text-anchor="middle" x="311.0972" y="-218" font-family="Times,serif" font-size="10.00" fill="#000000">Iteration #1</text>
<text text-anchor="middle" x="311.0972" y="-208" font-family="Times,serif" font-size="10.00" fill="#000000">Threshold determined, t</text>
</g>
<g id="clust2" class="cluster">
<title>cluster_1</title>
<polygon fill="none" stroke="#c0c0c0" points="8,-105 8,-183 367,-183 367,-105 8,-105"/>
<text text-anchor="middle" x="335.814" y="-111" font-family="Times,serif" font-size="10.00" fill="#000000">Iteration #2</text>
</g>
<g id="clust3" class="cluster">
<title>cluster_2</title>
<polygon fill="none" stroke="#c0c0c0" points="8,-8 8,-86 367,-86 367,-8 8,-8"/>
<text text-anchor="middle" x="335.814" y="-14" font-family="Times,serif" font-size="10.00" fill="#000000">Iteration #3</text>
</g>
<!-- seed -->
<g id="node1" class="node">
<title>seed</title>
<polygon fill="none" stroke="#000000" points="224.3151,-356 151.6849,-356 151.6849,-320 224.3151,-320 224.3151,-356"/>
<text text-anchor="middle" x="188" y="-334.4" font-family="Times,serif" font-size="12.00" fill="#000000">Seed Query</text>
</g>
<!-- rel1 -->
<g id="node2" class="node">
<title>rel1</title>
<polygon fill="#ffffff" stroke="#ffffff" points="71,-274 17,-274 17,-238 71,-238 71,-274"/>
<text text-anchor="middle" x="44" y="-258" font-family="Times,serif" font-size="10.00" fill="#000000">Similar</text>
<text text-anchor="middle" x="44" y="-248" font-family="Times,serif" font-size="10.00" fill="#000000">Query 1</text>
</g>
<!-- seed&#45;&gt;rel1 -->
<g id="edge1" class="edge">
<title>seed&#45;&gt;rel1</title>
<path fill="none" stroke="#ff0000" d="M156.0417,-319.8015C130.5213,-305.2691 95.1598,-285.1326 71.0325,-271.3935"/>
<text text-anchor="middle" x="125.709" y="-294" font-family="Times,serif" font-size="10.00" fill="#ff0000">k&lt;t</text>
</g>
<!-- rel2 -->
<g id="node3" class="node">
<title>rel2</title>
<polygon fill="#ffffff" stroke="#ffffff" points="143,-274 89,-274 89,-238 143,-238 143,-274"/>
<text text-anchor="middle" x="116" y="-258" font-family="Times,serif" font-size="10.00" fill="#000000">Similar</text>
<text text-anchor="middle" x="116" y="-248" font-family="Times,serif" font-size="10.00" fill="#000000">Query 2</text>
</g>
<!-- seed&#45;&gt;rel2 -->
<g id="edge2" class="edge">
<title>seed&#45;&gt;rel2</title>
<path fill="none" stroke="#00ff00" d="M172.0209,-319.8015C160.0892,-306.2127 143.8553,-287.7241 131.9345,-274.1476"/>
<text text-anchor="middle" x="166.5288" y="-294" font-family="Times,serif" font-size="10.00" fill="#00ff00">k&gt;=t</text>
</g>
<!-- rel3 -->
<g id="node4" class="node">
<title>rel3</title>
<polygon fill="#ffffff" stroke="#ffffff" points="215,-274 161,-274 161,-238 215,-238 215,-274"/>
<text text-anchor="middle" x="188" y="-258" font-family="Times,serif" font-size="10.00" fill="#000000">Similar</text>
<text text-anchor="middle" x="188" y="-248" font-family="Times,serif" font-size="10.00" fill="#000000">Query 3</text>
</g>
<!-- seed&#45;&gt;rel3 -->
<g id="edge3" class="edge">
<title>seed&#45;&gt;rel3</title>
<path fill="none" stroke="#00ff00" d="M188,-319.8015C188,-306.2127 188,-287.7241 188,-274.1476"/>
<text text-anchor="middle" x="197.5288" y="-294" font-family="Times,serif" font-size="10.00" fill="#00ff00">k&gt;=t</text>
</g>
<!-- rel4 -->
<g id="node5" class="node">
<title>rel4</title>
<polygon fill="#d3d3d3" stroke="transparent" points="287,-274 233,-274 233,-238 287,-238 287,-274"/>
<text text-anchor="middle" x="260" y="-253" font-family="Times,serif" font-size="10.00" fill="#000000">...</text>
</g>
<!-- seed&#45;&gt;rel4 -->
<g id="edge4" class="edge">
<title>seed&#45;&gt;rel4</title>
<path fill="none" stroke="#c0c0c0" d="M203.9791,-319.8015C215.9108,-306.2127 232.1447,-287.7241 244.0655,-274.1476"/>
</g>
<!-- reln -->
<g id="node6" class="node">
<title>reln</title>
<polygon fill="#ffffff" stroke="#ffffff" points="359,-274 305,-274 305,-238 359,-238 359,-274"/>
<text text-anchor="middle" x="332" y="-258" font-family="Times,serif" font-size="10.00" fill="#000000">Similar</text>
<text text-anchor="middle" x="332" y="-248" font-family="Times,serif" font-size="10.00" fill="#000000">Query n</text>
</g>
<!-- seed&#45;&gt;reln -->
<g id="edge5" class="edge">
<title>seed&#45;&gt;reln</title>
<path fill="none" stroke="#ff0000" d="M219.9583,-319.8015C245.4787,-305.2691 280.8402,-285.1326 304.9675,-271.3935"/>
<text text-anchor="middle" x="281.709" y="-294" font-family="Times,serif" font-size="10.00" fill="#ff0000">k&lt;t</text>
</g>
<!-- rel2n2 -->
<g id="node7" class="node">
<title>rel2n2</title>
<text text-anchor="middle" x="43" y="-149.4" font-family="Times,serif" font-size="12.00" fill="#000000">...</text>
</g>
<!-- rel2&#45;&gt;rel2n2 -->
<g id="edge6" class="edge">
<title>rel2&#45;&gt;rel2n2</title>
<path fill="none" stroke="#c0c0c0" d="M102.9491,-237.5857C89.6617,-218.8377 69.1844,-189.9451 55.9379,-171.2549"/>
</g>
<!-- rel21 -->
<g id="node8" class="node">
<title>rel21</title>
<polygon fill="#00ff00" stroke="#00ff00" points="142.4883,-175 87.5117,-175 87.5117,-131 142.4883,-131 142.4883,-175"/>
<text text-anchor="middle" x="115" y="-161.4" font-family="Times,serif" font-size="12.00" fill="#000000">Similar</text>
<text text-anchor="middle" x="115" y="-149.4" font-family="Times,serif" font-size="12.00" fill="#000000">Query 1</text>
<text text-anchor="middle" x="115" y="-137.4" font-family="Times,serif" font-size="12.00" fill="#000000">k&gt;=t</text>
</g>
<!-- rel3&#45;&gt;rel21 -->
<g id="edge7" class="edge">
<title>rel3&#45;&gt;rel21</title>
<path fill="none" stroke="#c0c0c0" d="M174.9491,-237.5857C162.5639,-220.1107 143.9321,-193.822 130.7318,-175.1969"/>
</g>
<!-- rel22 -->
<g id="node9" class="node">
<title>rel22</title>
<polygon fill="#00ff00" stroke="#00ff00" points="215.4883,-175 160.5117,-175 160.5117,-131 215.4883,-131 215.4883,-175"/>
<text text-anchor="middle" x="188" y="-161.4" font-family="Times,serif" font-size="12.00" fill="#000000">Similar</text>
<text text-anchor="middle" x="188" y="-149.4" font-family="Times,serif" font-size="12.00" fill="#000000">Query 2</text>
<text text-anchor="middle" x="188" y="-137.4" font-family="Times,serif" font-size="12.00" fill="#000000">k&gt;=t</text>
</g>
<!-- rel3&#45;&gt;rel22 -->
<g id="edge8" class="edge">
<title>rel3&#45;&gt;rel22</title>
<path fill="none" stroke="#c0c0c0" d="M188,-237.5857C188,-220.1107 188,-193.822 188,-175.1969"/>
</g>
<!-- rel23 -->
<g id="node10" class="node">
<title>rel23</title>
<text text-anchor="middle" x="260" y="-149.4" font-family="Times,serif" font-size="12.00" fill="#000000">...</text>
</g>
<!-- rel3&#45;&gt;rel23 -->
<g id="edge9" class="edge">
<title>rel3&#45;&gt;rel23</title>
<path fill="none" stroke="#c0c0c0" d="M200.8722,-237.5857C213.9775,-218.8377 234.1743,-189.9451 247.2393,-171.2549"/>
</g>
<!-- rel2n -->
<g id="node11" class="node">
<title>rel2n</title>
<polygon fill="#ff0000" stroke="#ff0000" points="359.4883,-175 304.5117,-175 304.5117,-131 359.4883,-131 359.4883,-175"/>
<text text-anchor="middle" x="332" y="-161.4" font-family="Times,serif" font-size="12.00" fill="#000000">Similar</text>
<text text-anchor="middle" x="332" y="-149.4" font-family="Times,serif" font-size="12.00" fill="#000000">Query n</text>
<text text-anchor="middle" x="332" y="-137.4" font-family="Times,serif" font-size="12.00" fill="#000000">k&lt;t</text>
</g>
<!-- rel3&#45;&gt;rel2n -->
<g id="edge10" class="edge">
<title>rel3&#45;&gt;rel2n</title>
<path fill="none" stroke="#c0c0c0" d="M213.4128,-237.8228C238.9271,-219.573 278.1195,-191.5396 304.3871,-172.7509"/>
</g>
<!-- rel3n1 -->
<g id="node16" class="node">
<title>rel3n1</title>
<text text-anchor="middle" x="43" y="-52.4" font-family="Times,serif" font-size="12.00" fill="#000000">...</text>
</g>
<!-- rel21&#45;&gt;rel3n1 -->
<g id="edge11" class="edge">
<title>rel21&#45;&gt;rel3n1</title>
<path fill="none" stroke="#c0c0c0" d="M98.6621,-130.9892C85.8831,-113.773 68.336,-90.1332 56.3818,-74.0283"/>
</g>
<!-- rel31 -->
<g id="node12" class="node">
<title>rel31</title>
<polygon fill="#ff0000" stroke="#ff0000" points="142.4883,-78 87.5117,-78 87.5117,-34 142.4883,-34 142.4883,-78"/>
<text text-anchor="middle" x="115" y="-64.4" font-family="Times,serif" font-size="12.00" fill="#000000">Similar</text>
<text text-anchor="middle" x="115" y="-52.4" font-family="Times,serif" font-size="12.00" fill="#000000">Query 1</text>
<text text-anchor="middle" x="115" y="-40.4" font-family="Times,serif" font-size="12.00" fill="#000000">k&lt;t</text>
</g>
<!-- rel22&#45;&gt;rel31 -->
<g id="edge12" class="edge">
<title>rel22&#45;&gt;rel31</title>
<path fill="none" stroke="#c0c0c0" d="M171.4352,-130.9892C159.5724,-115.2264 143.657,-94.0785 131.752,-78.2595"/>
</g>
<!-- rel32 -->
<g id="node13" class="node">
<title>rel32</title>
<polygon fill="#00ff00" stroke="#00ff00" points="215.4883,-78 160.5117,-78 160.5117,-34 215.4883,-34 215.4883,-78"/>
<text text-anchor="middle" x="188" y="-64.4" font-family="Times,serif" font-size="12.00" fill="#000000">Similar</text>
<text text-anchor="middle" x="188" y="-52.4" font-family="Times,serif" font-size="12.00" fill="#000000">Query 2</text>
<text text-anchor="middle" x="188" y="-40.4" font-family="Times,serif" font-size="12.00" fill="#000000">k&gt;=t</text>
</g>
<!-- rel22&#45;&gt;rel32 -->
<g id="edge13" class="edge">
<title>rel22&#45;&gt;rel32</title>
<path fill="none" stroke="#c0c0c0" d="M188,-130.9892C188,-115.2264 188,-94.0785 188,-78.2595"/>
</g>
<!-- rel33 -->
<g id="node14" class="node">
<title>rel33</title>
<text text-anchor="middle" x="260" y="-52.4" font-family="Times,serif" font-size="12.00" fill="#000000">...</text>
</g>
<!-- rel22&#45;&gt;rel33 -->
<g id="edge14" class="edge">
<title>rel22&#45;&gt;rel33</title>
<path fill="none" stroke="#c0c0c0" d="M204.3379,-130.9892C217.1169,-113.773 234.664,-90.1332 246.6182,-74.0283"/>
</g>
<!-- rel3n -->
<g id="node15" class="node">
<title>rel3n</title>
<polygon fill="#00ff00" stroke="#00ff00" points="359.4883,-78 304.5117,-78 304.5117,-34 359.4883,-34 359.4883,-78"/>
<text text-anchor="middle" x="332" y="-64.4" font-family="Times,serif" font-size="12.00" fill="#000000">Similar</text>
<text text-anchor="middle" x="332" y="-52.4" font-family="Times,serif" font-size="12.00" fill="#000000">Query n</text>
<text text-anchor="middle" x="332" y="-40.4" font-family="Times,serif" font-size="12.00" fill="#000000">k&gt;=t</text>
</g>
<!-- rel22&#45;&gt;rel3n -->
<g id="edge15" class="edge">
<title>rel22&#45;&gt;rel3n</title>
<path fill="none" stroke="#c0c0c0" d="M215.7646,-134.2974C241.2638,-117.1209 278.8484,-91.8035 304.3206,-74.6452"/>
</g>
</g>
</svg>
